<mxfile host="65bd71144e" scale="3" border="0">
    <diagram id="LzTGRrPrDBO6Tm46XuKC" name="Page-1">
        <mxGraphModel dx="2005" dy="1498" grid="0" gridSize="10" guides="1" tooltips="1" connect="1" arrows="1" fold="1" page="0" pageScale="1" pageWidth="1600" pageHeight="1200" math="0" shadow="0">
            <root>
                <mxCell id="0"/>
                <mxCell id="1" parent="0"/>
                <mxCell id="68" value="Active status" style="text;html=1;align=center;verticalAlign=middle;whiteSpace=wrap;rounded=0;fontSize=18;fontStyle=1" parent="1" vertex="1">
                    <mxGeometry x="679" y="319" width="363" height="30" as="geometry"/>
                </mxCell>
                <mxCell id="70" value="Pasive status" style="text;html=1;align=center;verticalAlign=middle;whiteSpace=wrap;rounded=0;fontSize=18;fontStyle=1" parent="1" vertex="1">
                    <mxGeometry x="61" y="308" width="363" height="30" as="geometry"/>
                </mxCell>
                <mxCell id="139" value="" style="group" vertex="1" connectable="0" parent="1">
                    <mxGeometry x="-42" y="27" width="266" height="265" as="geometry"/>
                </mxCell>
                <mxCell id="138" value="" style="rounded=1;whiteSpace=wrap;html=1;arcSize=7;aspect=fixed;" vertex="1" parent="139">
                    <mxGeometry width="265" height="265" as="geometry"/>
                </mxCell>
                <mxCell id="129" value="" style="rounded=1;whiteSpace=wrap;html=1;fillColor=#1A1A1A;strokeColor=none;arcSize=7;" vertex="1" parent="139">
                    <mxGeometry x="28.913043478260867" y="28.804347826086957" width="208.17391304347825" height="207.39130434782606" as="geometry"/>
                </mxCell>
                <mxCell id="136" value="" style="group" vertex="1" connectable="0" parent="139">
                    <mxGeometry x="55.83331103678929" y="64.25585284280936" width="154.79598662207357" height="62.04013377926421" as="geometry"/>
                </mxCell>
                <mxCell id="134" value="" style="ellipse;whiteSpace=wrap;html=1;aspect=fixed;fillColor=#B85450;strokeColor=#b85450;" vertex="1" parent="136">
                    <mxGeometry width="62.04013377926421" height="62.04013377926421" as="geometry"/>
                </mxCell>
                <mxCell id="135" value="" style="ellipse;whiteSpace=wrap;html=1;aspect=fixed;fillColor=#B85450;strokeColor=#b85450;" vertex="1" parent="136">
                    <mxGeometry x="92.52173913043478" width="62.04013377926421" height="62.04013377926421" as="geometry"/>
                </mxCell>
                <mxCell id="137" value="" style="ellipse;whiteSpace=wrap;html=1;aspect=fixed;fillColor=#f5f5f5;fontColor=#333333;strokeColor=#666666;" vertex="1" parent="139">
                    <mxGeometry x="101.86287625418059" y="151.9983277591973" width="62.04013377926421" height="62.04013377926421" as="geometry"/>
                </mxCell>
                <mxCell id="140" value="" style="group" vertex="1" connectable="0" parent="1">
                    <mxGeometry x="251" y="27" width="266" height="265" as="geometry"/>
                </mxCell>
                <mxCell id="141" value="" style="rounded=1;whiteSpace=wrap;html=1;arcSize=7;aspect=fixed;" vertex="1" parent="140">
                    <mxGeometry width="265" height="265" as="geometry"/>
                </mxCell>
                <mxCell id="142" value="" style="rounded=1;whiteSpace=wrap;html=1;fillColor=#1A1A1A;strokeColor=none;arcSize=7;" vertex="1" parent="140">
                    <mxGeometry x="28.913043478260867" y="28.804347826086957" width="208.17391304347825" height="207.39130434782606" as="geometry"/>
                </mxCell>
                <mxCell id="143" value="" style="group" vertex="1" connectable="0" parent="140">
                    <mxGeometry x="55.83331103678929" y="64.25585284280936" width="154.79598662207357" height="62.04013377926421" as="geometry"/>
                </mxCell>
                <mxCell id="144" value="" style="ellipse;whiteSpace=wrap;html=1;aspect=fixed;fillColor=#B85450;strokeColor=#b85450;" vertex="1" parent="143">
                    <mxGeometry width="62.04013377926421" height="62.04013377926421" as="geometry"/>
                </mxCell>
                <mxCell id="145" value="" style="ellipse;whiteSpace=wrap;html=1;aspect=fixed;fillColor=#B85450;strokeColor=#b85450;" vertex="1" parent="143">
                    <mxGeometry x="92.52173913043478" width="62.04013377926421" height="62.04013377926421" as="geometry"/>
                </mxCell>
                <mxCell id="146" value="" style="ellipse;whiteSpace=wrap;html=1;aspect=fixed;fillColor=#fff2cc;strokeColor=#d6b656;" vertex="1" parent="140">
                    <mxGeometry x="101.86287625418059" y="151.9983277591973" width="62.04013377926421" height="62.04013377926421" as="geometry"/>
                </mxCell>
                <mxCell id="154" value="" style="group" vertex="1" connectable="0" parent="1">
                    <mxGeometry x="571" y="29" width="266" height="265" as="geometry"/>
                </mxCell>
                <mxCell id="155" value="" style="rounded=1;whiteSpace=wrap;html=1;arcSize=7;aspect=fixed;" vertex="1" parent="154">
                    <mxGeometry width="265" height="265" as="geometry"/>
                </mxCell>
                <mxCell id="156" value="" style="rounded=1;whiteSpace=wrap;html=1;fillColor=#1A1A1A;strokeColor=none;arcSize=7;" vertex="1" parent="154">
                    <mxGeometry x="28.913043478260867" y="28.804347826086957" width="208.17391304347825" height="207.39130434782606" as="geometry"/>
                </mxCell>
                <mxCell id="157" value="" style="group" vertex="1" connectable="0" parent="154">
                    <mxGeometry x="55.83331103678929" y="64.25585284280936" width="154.79598662207357" height="62.04013377926421" as="geometry"/>
                </mxCell>
                <mxCell id="158" value="" style="ellipse;whiteSpace=wrap;html=1;aspect=fixed;fillColor=#FF3333;strokeColor=#b85450;" vertex="1" parent="157">
                    <mxGeometry width="62.04013377926421" height="62.04013377926421" as="geometry"/>
                </mxCell>
                <mxCell id="159" value="" style="ellipse;whiteSpace=wrap;html=1;aspect=fixed;fillColor=#B85450;strokeColor=#b85450;" vertex="1" parent="157">
                    <mxGeometry x="92.52173913043478" width="62.04013377926421" height="62.04013377926421" as="geometry"/>
                </mxCell>
                <mxCell id="160" value="" style="ellipse;whiteSpace=wrap;html=1;aspect=fixed;fillColor=#f5f5f5;fontColor=#333333;strokeColor=#666666;" vertex="1" parent="154">
                    <mxGeometry x="101.86287625418059" y="151.9983277591973" width="62.04013377926421" height="62.04013377926421" as="geometry"/>
                </mxCell>
                <mxCell id="161" value="" style="group" vertex="1" connectable="0" parent="1">
                    <mxGeometry x="864" y="29" width="266" height="265" as="geometry"/>
                </mxCell>
                <mxCell id="162" value="" style="rounded=1;whiteSpace=wrap;html=1;arcSize=7;aspect=fixed;" vertex="1" parent="161">
                    <mxGeometry width="265" height="265" as="geometry"/>
                </mxCell>
                <mxCell id="163" value="" style="rounded=1;whiteSpace=wrap;html=1;fillColor=#1A1A1A;strokeColor=none;arcSize=7;" vertex="1" parent="161">
                    <mxGeometry x="28.913043478260867" y="28.804347826086957" width="208.17391304347825" height="207.39130434782606" as="geometry"/>
                </mxCell>
                <mxCell id="164" value="" style="group" vertex="1" connectable="0" parent="161">
                    <mxGeometry x="55.83331103678929" y="64.25585284280936" width="154.79598662207357" height="62.04013377926421" as="geometry"/>
                </mxCell>
                <mxCell id="165" value="" style="ellipse;whiteSpace=wrap;html=1;aspect=fixed;fillColor=#B85450;strokeColor=#b85450;" vertex="1" parent="164">
                    <mxGeometry width="62.04013377926421" height="62.04013377926421" as="geometry"/>
                </mxCell>
                <mxCell id="166" value="" style="ellipse;whiteSpace=wrap;html=1;aspect=fixed;fillColor=#FF3333;strokeColor=#b85450;" vertex="1" parent="164">
                    <mxGeometry x="92.52173913043478" width="62.04013377926421" height="62.04013377926421" as="geometry"/>
                </mxCell>
                <mxCell id="167" value="" style="ellipse;whiteSpace=wrap;html=1;aspect=fixed;fillColor=#f5f5f5;fontColor=#333333;strokeColor=#666666;" vertex="1" parent="161">
                    <mxGeometry x="101.86287625418059" y="151.9983277591973" width="62.04013377926421" height="62.04013377926421" as="geometry"/>
                </mxCell>
            </root>
        </mxGraphModel>
    </diagram>
</mxfile>